M48
; DRILL file {KiCad (6.0.9)} date Thu Jan  5 12:03:12 2023
; FORMAT={-:-/ absolute / inch / decimal}
; #@! TF.CreationDate,2023-01-05T12:03:12+01:00
; #@! TF.GenerationSoftware,Kicad,Pcbnew,(6.0.9)
; #@! TF.FileFunction,Plated,1,2,PTH
FMAT,2
INCH
; #@! TA.AperFunction,Plated,PTH,ViaDrill
T1C0.0118
; #@! TA.AperFunction,Plated,PTH,ComponentDrill
T2C0.0394
; #@! TA.AperFunction,Plated,PTH,ComponentDrill
T3C0.0512
%
G90
G05
T1
X3.3179Y-2.7646
X3.3179Y-3.885
X3.4466Y-2.8394
X3.5Y-2.9551
X3.6748Y-3.631
X3.6763Y-2.8394
X3.89Y-3.188
X4.0033Y-4.4701
X4.5028Y-3.3482
X4.524Y-6.6173
X4.9716Y-3.6796
T2
X2.6Y-3.1
X2.6Y-3.2
X2.6Y-3.3
X2.6Y-3.4
X2.6Y-3.5
X2.6Y-3.9
X2.6Y-4.0
X2.6Y-4.1
X2.6Y-4.2
X2.6Y-4.3
X2.6Y-4.7
X2.6Y-4.8
X2.6Y-4.9
X2.6Y-5.0
X2.6Y-5.1
X2.6Y-5.5
X2.6Y-5.6
X2.6Y-5.7
X2.6Y-5.8
X2.6Y-5.9
X2.6Y-6.3
X2.6Y-6.4
X2.6Y-6.5
X2.6Y-6.6
X2.6Y-6.7
X2.6Y-7.1
X2.6Y-7.2
X2.6Y-7.3
X2.6Y-7.4
X2.6Y-7.5
X2.9Y-2.7
X3.0Y-2.7
X3.1Y-2.7
X3.2Y-2.7
X3.3Y-2.7
X3.4Y-2.7
X3.5Y-2.7
X3.6Y-2.7
X3.7Y-2.7
X3.8Y-2.7
X3.9Y-2.7
X4.0Y-2.7
X4.1Y-2.7
X4.2Y-2.7
X4.3Y-2.7
X4.7Y-2.7
X4.8Y-2.7
X5.1Y-2.7
X5.1Y-3.4
X5.1Y-3.5
X5.1Y-3.6
X5.1Y-3.7
X5.1Y-3.8
X5.1Y-3.9
X5.1Y-4.0
X5.1Y-4.1
X5.1Y-4.2
X5.1Y-4.3
X5.1Y-4.4
X5.1Y-4.5
X5.1Y-4.8502
X5.1Y-4.9502
X5.1Y-5.0502
X5.1Y-5.1502
X5.1Y-5.2502
X5.1Y-5.3502
X5.1Y-5.4502
X5.1Y-5.5502
X5.1Y-5.6502
X5.1Y-5.7502
X5.1Y-6.0502
X5.1Y-6.1502
X5.1Y-6.2502
X5.1Y-6.3502
X5.1Y-6.4502
X5.1Y-6.5502
X5.1Y-6.6502
X5.1Y-6.7502
X5.1Y-6.8502
X5.1Y-6.9502
X5.1Y-7.3504
X5.1Y-7.4504
X5.1Y-7.5504
X5.1Y-7.6504
X5.2Y-2.7
X5.8Y-3.4
X5.8Y-3.5
X5.8Y-3.6
X5.8Y-3.7
X5.8Y-3.8
X5.8Y-3.9
X5.8Y-4.0
X5.8Y-4.1
X5.8Y-4.2
X5.8Y-4.3
X5.8Y-4.4
X5.8Y-4.5
T3
X3.0806Y-3.1241
X3.0806Y-3.5966
X3.0806Y-3.9638
X3.0806Y-4.4362
X3.0806Y-4.7638
X3.0806Y-5.2362
X3.0806Y-5.5638
X3.0806Y-6.0362
X3.0806Y-6.3638
X3.0806Y-6.8362
X3.0806Y-7.1638
X3.0806Y-7.6362
X3.5609Y-3.1241
X3.5609Y-3.5966
X3.5609Y-3.9638
X3.5609Y-4.4362
X3.5609Y-4.7638
X3.5609Y-5.2362
X3.5609Y-5.5638
X3.5609Y-6.0362
X3.5609Y-6.3638
X3.5609Y-6.8362
X3.5609Y-7.1638
X3.5609Y-7.6362
X3.6397Y-3.3603
X3.6397Y-4.2
X3.6397Y-5.0
X3.6397Y-5.8
X3.6397Y-6.6
X3.6397Y-7.4
X4.0603Y-3.3603
X4.0603Y-4.2
X4.0603Y-5.0
X4.0603Y-5.8
X4.0603Y-6.6
X4.0603Y-7.4
X4.1391Y-3.1241
X4.1391Y-3.5966
X4.1391Y-3.9638
X4.1391Y-4.4362
X4.1391Y-4.7638
X4.1391Y-5.2362
X4.1391Y-5.5638
X4.1391Y-6.0362
X4.1391Y-6.3638
X4.1391Y-6.8362
X4.1391Y-7.1638
X4.1391Y-7.6362
X4.6194Y-3.1241
X4.6194Y-3.5966
X4.6194Y-3.9638
X4.6194Y-4.4362
X4.6194Y-4.7638
X4.6194Y-5.2362
X4.6194Y-5.5638
X4.6194Y-6.0362
X4.6194Y-6.3638
X4.6194Y-6.8362
X4.6194Y-7.1638
X4.6194Y-7.6362
T0
M30
