%TF.GenerationSoftware,KiCad,Pcbnew,(6.0.9)*%
%TF.CreationDate,2023-01-05T12:03:17+01:00*%
%TF.ProjectId,BMA,424d412e-6b69-4636-9164-5f7063625858,0.1*%
%TF.SameCoordinates,Original*%
%TF.FileFunction,Copper,L1,Top*%
%TF.FilePolarity,Positive*%
%FSLAX46Y46*%
G04 Gerber Fmt 4.6, Leading zero omitted, Abs format (unit mm)*
G04 Created by KiCad (PCBNEW (6.0.9)) date 2023-01-05 12:03:17*
%MOMM*%
%LPD*%
G01*
G04 APERTURE LIST*
%TA.AperFunction,ComponentPad*%
%ADD10R,1.700000X1.700000*%
%TD*%
%TA.AperFunction,ComponentPad*%
%ADD11O,1.700000X1.700000*%
%TD*%
%TA.AperFunction,ComponentPad*%
%ADD12R,2.500000X2.500000*%
%TD*%
%TA.AperFunction,ComponentPad*%
%ADD13O,2.500000X2.500000*%
%TD*%
%TA.AperFunction,ViaPad*%
%ADD14C,0.800000*%
%TD*%
%TA.AperFunction,Conductor*%
%ADD15C,1.000000*%
%TD*%
G04 APERTURE END LIST*
D10*
%TO.P,J7,1,Pin_1*%
%TO.N,unconnected-(J7-Pad1)*%
X147320000Y-86360000D03*
D11*
%TO.P,J7,2,Pin_2*%
%TO.N,unconnected-(J7-Pad2)*%
X147320000Y-88900000D03*
%TO.P,J7,3,Pin_3*%
%TO.N,unconnected-(J7-Pad3)*%
X147320000Y-91440000D03*
%TO.P,J7,4,Pin_4*%
%TO.N,unconnected-(J7-Pad4)*%
X147320000Y-93980000D03*
%TO.P,J7,5,Pin_5*%
%TO.N,unconnected-(J7-Pad5)*%
X147320000Y-96520000D03*
%TO.P,J7,6,Pin_6*%
%TO.N,unconnected-(J7-Pad6)*%
X147320000Y-99060000D03*
%TO.P,J7,7,Pin_7*%
%TO.N,unconnected-(J7-Pad7)*%
X147320000Y-101600000D03*
%TO.P,J7,8,Pin_8*%
%TO.N,unconnected-(J7-Pad8)*%
X147320000Y-104140000D03*
%TO.P,J7,9,Pin_9*%
%TO.N,unconnected-(J7-Pad9)*%
X147320000Y-106680000D03*
%TO.P,J7,10,Pin_10*%
%TO.N,unconnected-(J7-Pad10)*%
X147320000Y-109220000D03*
%TO.P,J7,11,Pin_11*%
%TO.N,unconnected-(J7-Pad11)*%
X147320000Y-111760000D03*
%TO.P,J7,12,Pin_12*%
%TO.N,unconnected-(J7-Pad12)*%
X147320000Y-114300000D03*
%TD*%
D10*
%TO.P,J5,1,Pin_1*%
%TO.N,Net-(J1-Pad1)*%
X66040000Y-99060000D03*
D11*
%TO.P,J5,2,Pin_2*%
%TO.N,Net-(J5-Pad2)*%
X66040000Y-101600000D03*
%TO.P,J5,3,Pin_3*%
%TO.N,Net-(J5-Pad3)*%
X66040000Y-104140000D03*
%TO.P,J5,4,Pin_4*%
%TO.N,Net-(J5-Pad4)*%
X66040000Y-106680000D03*
%TO.P,J5,5,Pin_5*%
%TO.N,Net-(J10-Pad1)*%
X66040000Y-109220000D03*
%TD*%
D12*
%TO.P,K4,1*%
%TO.N,Net-(J2-Pad1)*%
X103132500Y-106680000D03*
D13*
%TO.P,K4,2*%
%TO.N,Net-(J1-Pad5)*%
X105132500Y-112680000D03*
%TO.P,K4,3*%
%TO.N,Net-(J5-Pad3)*%
X117332500Y-112680000D03*
%TO.P,K4,4*%
%TO.N,unconnected-(K4-Pad4)*%
X117332500Y-100680000D03*
%TO.P,K4,5*%
%TO.N,Net-(J1-Pad1)*%
X105132500Y-100680000D03*
%TD*%
D10*
%TO.P,J2,1,Pin_1*%
%TO.N,Net-(J2-Pad1)*%
X119380000Y-68580000D03*
D11*
%TO.P,J2,2,Pin_2*%
%TO.N,Net-(J1-Pad1)*%
X121920000Y-68580000D03*
%TD*%
D10*
%TO.P,J11,1,Pin_1*%
%TO.N,Net-(J1-Pad1)*%
X66040000Y-139700000D03*
D11*
%TO.P,J11,2,Pin_2*%
%TO.N,Net-(J11-Pad2)*%
X66040000Y-142240000D03*
%TO.P,J11,3,Pin_3*%
%TO.N,Net-(J11-Pad3)*%
X66040000Y-144780000D03*
%TO.P,J11,4,Pin_4*%
%TO.N,Net-(J11-Pad4)*%
X66040000Y-147320000D03*
%TO.P,J11,5,Pin_5*%
%TO.N,Net-(J10-Pad1)*%
X66040000Y-149860000D03*
%TD*%
D12*
%TO.P,K11,1*%
%TO.N,Net-(J2-Pad1)*%
X92447500Y-187960000D03*
D13*
%TO.P,K11,2*%
%TO.N,Net-(J1-Pad12)*%
X90447500Y-181960000D03*
%TO.P,K11,3*%
%TO.N,Net-(J14-Pad2)*%
X78247500Y-181960000D03*
%TO.P,K11,4*%
%TO.N,unconnected-(K11-Pad4)*%
X78247500Y-193960000D03*
%TO.P,K11,5*%
%TO.N,Net-(J1-Pad1)*%
X90447500Y-193960000D03*
%TD*%
D10*
%TO.P,J4,1,Pin_1*%
%TO.N,Net-(J1-Pad1)*%
X66040000Y-78740000D03*
D11*
%TO.P,J4,2,Pin_2*%
%TO.N,Net-(J4-Pad2)*%
X66040000Y-81280000D03*
%TO.P,J4,3,Pin_3*%
%TO.N,Net-(J4-Pad3)*%
X66040000Y-83820000D03*
%TO.P,J4,4,Pin_4*%
%TO.N,Net-(J4-Pad4)*%
X66040000Y-86360000D03*
%TO.P,J4,5,Pin_5*%
%TO.N,Net-(J10-Pad1)*%
X66040000Y-88900000D03*
%TD*%
D12*
%TO.P,K12,1*%
%TO.N,Net-(J2-Pad1)*%
X103132500Y-187960000D03*
D13*
%TO.P,K12,2*%
%TO.N,Net-(J1-Pad13)*%
X105132500Y-193960000D03*
%TO.P,K12,3*%
%TO.N,Net-(J14-Pad3)*%
X117332500Y-193960000D03*
%TO.P,K12,4*%
%TO.N,unconnected-(K12-Pad4)*%
X117332500Y-181960000D03*
%TO.P,K12,5*%
%TO.N,Net-(J1-Pad1)*%
X105132500Y-181960000D03*
%TD*%
D10*
%TO.P,J8,1,Pin_1*%
%TO.N,Net-(J1-Pad1)*%
X66040000Y-119380000D03*
D11*
%TO.P,J8,2,Pin_2*%
%TO.N,Net-(J8-Pad2)*%
X66040000Y-121920000D03*
%TO.P,J8,3,Pin_3*%
%TO.N,Net-(J8-Pad3)*%
X66040000Y-124460000D03*
%TO.P,J8,4,Pin_4*%
%TO.N,Net-(J8-Pad4)*%
X66040000Y-127000000D03*
%TO.P,J8,5,Pin_5*%
%TO.N,Net-(J10-Pad1)*%
X66040000Y-129540000D03*
%TD*%
D10*
%TO.P,J6,1,Pin_1*%
%TO.N,Net-(J10-Pad1)*%
X129540000Y-86360000D03*
D11*
%TO.P,J6,2,Pin_2*%
%TO.N,Net-(J1-Pad1)*%
X129540000Y-88900000D03*
%TO.P,J6,3,Pin_3*%
%TO.N,Net-(J1-Pad14)*%
X129540000Y-91440000D03*
%TO.P,J6,4,Pin_4*%
%TO.N,Net-(J1-Pad15)*%
X129540000Y-93980000D03*
%TO.P,J6,5,Pin_5*%
%TO.N,unconnected-(J6-Pad5)*%
X129540000Y-96520000D03*
%TO.P,J6,6,Pin_6*%
%TO.N,unconnected-(J6-Pad6)*%
X129540000Y-99060000D03*
%TO.P,J6,7,Pin_7*%
%TO.N,unconnected-(J6-Pad7)*%
X129540000Y-101600000D03*
%TO.P,J6,8,Pin_8*%
%TO.N,unconnected-(J6-Pad8)*%
X129540000Y-104140000D03*
%TO.P,J6,9,Pin_9*%
%TO.N,Net-(J6-Pad9)*%
X129540000Y-106680000D03*
%TO.P,J6,10,Pin_10*%
%TO.N,Net-(J6-Pad10)*%
X129540000Y-109220000D03*
%TO.P,J6,11,Pin_11*%
%TO.N,Net-(J10-Pad3)*%
X129540000Y-111760000D03*
%TO.P,J6,12,Pin_12*%
%TO.N,Net-(J10-Pad4)*%
X129540000Y-114300000D03*
%TD*%
D12*
%TO.P,K1,1*%
%TO.N,Net-(J2-Pad1)*%
X92447500Y-85352500D03*
D13*
%TO.P,K1,2*%
%TO.N,Net-(J1-Pad2)*%
X90447500Y-79352500D03*
%TO.P,K1,3*%
%TO.N,Net-(J4-Pad2)*%
X78247500Y-79352500D03*
%TO.P,K1,4*%
%TO.N,unconnected-(K1-Pad4)*%
X78247500Y-91352500D03*
%TO.P,K1,5*%
%TO.N,Net-(J1-Pad1)*%
X90447500Y-91352500D03*
%TD*%
D12*
%TO.P,K3,1*%
%TO.N,Net-(J2-Pad1)*%
X92447500Y-106680000D03*
D13*
%TO.P,K3,2*%
%TO.N,Net-(J1-Pad4)*%
X90447500Y-100680000D03*
%TO.P,K3,3*%
%TO.N,Net-(J5-Pad2)*%
X78247500Y-100680000D03*
%TO.P,K3,4*%
%TO.N,unconnected-(K3-Pad4)*%
X78247500Y-112680000D03*
%TO.P,K3,5*%
%TO.N,Net-(J1-Pad1)*%
X90447500Y-112680000D03*
%TD*%
D12*
%TO.P,K9,1*%
%TO.N,Net-(J2-Pad1)*%
X92447500Y-167640000D03*
D13*
%TO.P,K9,2*%
%TO.N,Net-(J1-Pad10)*%
X90447500Y-161640000D03*
%TO.P,K9,3*%
%TO.N,Net-(J13-Pad2)*%
X78247500Y-161640000D03*
%TO.P,K9,4*%
%TO.N,unconnected-(K9-Pad4)*%
X78247500Y-173640000D03*
%TO.P,K9,5*%
%TO.N,Net-(J1-Pad1)*%
X90447500Y-173640000D03*
%TD*%
D10*
%TO.P,J12,1,Pin_1*%
%TO.N,Net-(J1-Pad1)*%
X129540000Y-186700000D03*
D11*
%TO.P,J12,2,Pin_2*%
%TO.N,Net-(J10-Pad10)*%
X129540000Y-189240000D03*
%TO.P,J12,3,Pin_3*%
%TO.N,Net-(J10-Pad1)*%
X129540000Y-191780000D03*
%TO.P,J12,4,Pin_4*%
%TO.N,unconnected-(J12-Pad4)*%
X129540000Y-194320000D03*
%TD*%
D12*
%TO.P,K6,1*%
%TO.N,Net-(J2-Pad1)*%
X103132500Y-127000000D03*
D13*
%TO.P,K6,2*%
%TO.N,Net-(J1-Pad7)*%
X105132500Y-133000000D03*
%TO.P,K6,3*%
%TO.N,Net-(J8-Pad3)*%
X117332500Y-133000000D03*
%TO.P,K6,4*%
%TO.N,unconnected-(K6-Pad4)*%
X117332500Y-121000000D03*
%TO.P,K6,5*%
%TO.N,Net-(J1-Pad1)*%
X105132500Y-121000000D03*
%TD*%
D10*
%TO.P,J9,1,Pin_1*%
%TO.N,Net-(J10-Pad1)*%
X129540000Y-123195000D03*
D11*
%TO.P,J9,2,Pin_2*%
%TO.N,Net-(J1-Pad1)*%
X129540000Y-125735000D03*
%TO.P,J9,3,Pin_3*%
%TO.N,Net-(J6-Pad9)*%
X129540000Y-128275000D03*
%TO.P,J9,4,Pin_4*%
%TO.N,Net-(J6-Pad10)*%
X129540000Y-130815000D03*
%TO.P,J9,5,Pin_5*%
%TO.N,unconnected-(J9-Pad5)*%
X129540000Y-133355000D03*
%TO.P,J9,6,Pin_6*%
%TO.N,unconnected-(J9-Pad6)*%
X129540000Y-135895000D03*
%TO.P,J9,7,Pin_7*%
%TO.N,Net-(J4-Pad4)*%
X129540000Y-138435000D03*
%TO.P,J9,8,Pin_8*%
%TO.N,Net-(J5-Pad4)*%
X129540000Y-140975000D03*
%TO.P,J9,9,Pin_9*%
%TO.N,Net-(J8-Pad4)*%
X129540000Y-143515000D03*
%TO.P,J9,10,Pin_10*%
%TO.N,Net-(J11-Pad4)*%
X129540000Y-146055000D03*
%TD*%
D12*
%TO.P,K7,1*%
%TO.N,Net-(J2-Pad1)*%
X92447500Y-147320000D03*
D13*
%TO.P,K7,2*%
%TO.N,Net-(J1-Pad8)*%
X90447500Y-141320000D03*
%TO.P,K7,3*%
%TO.N,Net-(J11-Pad2)*%
X78247500Y-141320000D03*
%TO.P,K7,4*%
%TO.N,unconnected-(K7-Pad4)*%
X78247500Y-153320000D03*
%TO.P,K7,5*%
%TO.N,Net-(J1-Pad1)*%
X90447500Y-153320000D03*
%TD*%
D10*
%TO.P,J13,1,Pin_1*%
%TO.N,Net-(J1-Pad1)*%
X66040000Y-160020000D03*
D11*
%TO.P,J13,2,Pin_2*%
%TO.N,Net-(J13-Pad2)*%
X66040000Y-162560000D03*
%TO.P,J13,3,Pin_3*%
%TO.N,Net-(J13-Pad3)*%
X66040000Y-165100000D03*
%TO.P,J13,4,Pin_4*%
%TO.N,Net-(J10-Pad7)*%
X66040000Y-167640000D03*
%TO.P,J13,5,Pin_5*%
%TO.N,Net-(J10-Pad1)*%
X66040000Y-170180000D03*
%TD*%
D10*
%TO.P,J14,1,Pin_1*%
%TO.N,Net-(J1-Pad1)*%
X66040000Y-180340000D03*
D11*
%TO.P,J14,2,Pin_2*%
%TO.N,Net-(J14-Pad2)*%
X66040000Y-182880000D03*
%TO.P,J14,3,Pin_3*%
%TO.N,Net-(J14-Pad3)*%
X66040000Y-185420000D03*
%TO.P,J14,4,Pin_4*%
%TO.N,Net-(J10-Pad8)*%
X66040000Y-187960000D03*
%TO.P,J14,5,Pin_5*%
%TO.N,Net-(J10-Pad1)*%
X66040000Y-190500000D03*
%TD*%
D10*
%TO.P,J1,1,Pin_1*%
%TO.N,Net-(J1-Pad1)*%
X73660000Y-68580000D03*
D11*
%TO.P,J1,2,Pin_2*%
%TO.N,Net-(J1-Pad2)*%
X76200000Y-68580000D03*
%TO.P,J1,3,Pin_3*%
%TO.N,Net-(J1-Pad3)*%
X78740000Y-68580000D03*
%TO.P,J1,4,Pin_4*%
%TO.N,Net-(J1-Pad4)*%
X81280000Y-68580000D03*
%TO.P,J1,5,Pin_5*%
%TO.N,Net-(J1-Pad5)*%
X83820000Y-68580000D03*
%TO.P,J1,6,Pin_6*%
%TO.N,Net-(J1-Pad6)*%
X86360000Y-68580000D03*
%TO.P,J1,7,Pin_7*%
%TO.N,Net-(J1-Pad7)*%
X88900000Y-68580000D03*
%TO.P,J1,8,Pin_8*%
%TO.N,Net-(J1-Pad8)*%
X91440000Y-68580000D03*
%TO.P,J1,9,Pin_9*%
%TO.N,Net-(J1-Pad9)*%
X93980000Y-68580000D03*
%TO.P,J1,10,Pin_10*%
%TO.N,Net-(J1-Pad10)*%
X96520000Y-68580000D03*
%TO.P,J1,11,Pin_11*%
%TO.N,Net-(J1-Pad11)*%
X99060000Y-68580000D03*
%TO.P,J1,12,Pin_12*%
%TO.N,Net-(J1-Pad12)*%
X101600000Y-68580000D03*
%TO.P,J1,13,Pin_13*%
%TO.N,Net-(J1-Pad13)*%
X104140000Y-68580000D03*
%TO.P,J1,14,Pin_14*%
%TO.N,Net-(J1-Pad14)*%
X106680000Y-68580000D03*
%TO.P,J1,15,Pin_15*%
%TO.N,Net-(J1-Pad15)*%
X109220000Y-68580000D03*
%TD*%
D12*
%TO.P,K10,1*%
%TO.N,Net-(J2-Pad1)*%
X103132500Y-167640000D03*
D13*
%TO.P,K10,2*%
%TO.N,Net-(J1-Pad11)*%
X105132500Y-173640000D03*
%TO.P,K10,3*%
%TO.N,Net-(J13-Pad3)*%
X117332500Y-173640000D03*
%TO.P,K10,4*%
%TO.N,unconnected-(K10-Pad4)*%
X117332500Y-161640000D03*
%TO.P,K10,5*%
%TO.N,Net-(J1-Pad1)*%
X105132500Y-161640000D03*
%TD*%
D10*
%TO.P,J3,1,Pin_1*%
%TO.N,Net-(J10-Pad1)*%
X129540000Y-68580000D03*
D11*
%TO.P,J3,2,Pin_2*%
%TO.N,Net-(J1-Pad1)*%
X132080000Y-68580000D03*
%TD*%
D10*
%TO.P,J10,1,Pin_1*%
%TO.N,Net-(J10-Pad1)*%
X129540000Y-153675000D03*
D11*
%TO.P,J10,2,Pin_2*%
%TO.N,Net-(J1-Pad1)*%
X129540000Y-156215000D03*
%TO.P,J10,3,Pin_3*%
%TO.N,Net-(J10-Pad3)*%
X129540000Y-158755000D03*
%TO.P,J10,4,Pin_4*%
%TO.N,Net-(J10-Pad4)*%
X129540000Y-161295000D03*
%TO.P,J10,5,Pin_5*%
%TO.N,unconnected-(J10-Pad5)*%
X129540000Y-163835000D03*
%TO.P,J10,6,Pin_6*%
%TO.N,unconnected-(J10-Pad6)*%
X129540000Y-166375000D03*
%TO.P,J10,7,Pin_7*%
%TO.N,Net-(J10-Pad7)*%
X129540000Y-168915000D03*
%TO.P,J10,8,Pin_8*%
%TO.N,Net-(J10-Pad8)*%
X129540000Y-171455000D03*
%TO.P,J10,9,Pin_9*%
%TO.N,unconnected-(J10-Pad9)*%
X129540000Y-173995000D03*
%TO.P,J10,10,Pin_10*%
%TO.N,Net-(J10-Pad10)*%
X129540000Y-176535000D03*
%TD*%
D12*
%TO.P,K5,1*%
%TO.N,Net-(J2-Pad1)*%
X92447500Y-127000000D03*
D13*
%TO.P,K5,2*%
%TO.N,Net-(J1-Pad6)*%
X90447500Y-121000000D03*
%TO.P,K5,3*%
%TO.N,Net-(J8-Pad2)*%
X78247500Y-121000000D03*
%TO.P,K5,4*%
%TO.N,unconnected-(K5-Pad4)*%
X78247500Y-133000000D03*
%TO.P,K5,5*%
%TO.N,Net-(J1-Pad1)*%
X90447500Y-133000000D03*
%TD*%
D12*
%TO.P,K2,1*%
%TO.N,Net-(J2-Pad1)*%
X103132500Y-85352500D03*
D13*
%TO.P,K2,2*%
%TO.N,Net-(J1-Pad3)*%
X105132500Y-91352500D03*
%TO.P,K2,3*%
%TO.N,Net-(J4-Pad3)*%
X117332500Y-91352500D03*
%TO.P,K2,4*%
%TO.N,unconnected-(K2-Pad4)*%
X117332500Y-79352500D03*
%TO.P,K2,5*%
%TO.N,Net-(J1-Pad1)*%
X105132500Y-79352500D03*
%TD*%
D12*
%TO.P,K8,1*%
%TO.N,Net-(J2-Pad1)*%
X103132500Y-147320000D03*
D13*
%TO.P,K8,2*%
%TO.N,Net-(J1-Pad9)*%
X105132500Y-153320000D03*
%TO.P,K8,3*%
%TO.N,Net-(J11-Pad3)*%
X117332500Y-153320000D03*
%TO.P,K8,4*%
%TO.N,unconnected-(K8-Pad4)*%
X117332500Y-141320000D03*
%TO.P,K8,5*%
%TO.N,Net-(J1-Pad1)*%
X105132500Y-141320000D03*
%TD*%
D14*
%TO.N,Net-(J13-Pad3)*%
X114909900Y-168079400D03*
%TO.N,Net-(J2-Pad1)*%
X93340900Y-92227100D03*
X114369900Y-85043600D03*
X101683800Y-113539300D03*
%TO.N,Net-(J1-Pad10)*%
X93378600Y-72121800D03*
%TO.N,Net-(J1-Pad7)*%
X88900000Y-75059900D03*
X98806900Y-80974600D03*
%TO.N,Net-(J1-Pad5)*%
X84275900Y-70221500D03*
X84275900Y-98679900D03*
%TO.N,Net-(J1-Pad4)*%
X87544800Y-72121800D03*
%TO.N,Net-(J1-Pad1)*%
X126279500Y-93462700D03*
%TD*%
D15*
%TO.N,Net-(J14-Pad2)*%
X75327400Y-182880000D02*
X76247400Y-181960000D01*
X66040000Y-182880000D02*
X75327400Y-182880000D01*
X78247500Y-181960000D02*
X76247400Y-181960000D01*
%TO.N,Net-(J13-Pad3)*%
X117332500Y-170502000D02*
X114909900Y-168079400D01*
X117332500Y-173640000D02*
X117332500Y-170502000D01*
%TO.N,Net-(J10-Pad4)*%
X129540000Y-114300000D02*
X129540000Y-115900100D01*
X132420500Y-118780600D02*
X129540000Y-115900100D01*
X132420500Y-158414500D02*
X132420500Y-118780600D01*
X129540000Y-161295000D02*
X132420500Y-158414500D01*
%TO.N,Net-(J10-Pad3)*%
X127919900Y-157134900D02*
X129540000Y-158755000D01*
X127919900Y-156583500D02*
X127919900Y-157134900D01*
X127919800Y-156583500D02*
X127919900Y-156583500D01*
X126669800Y-155333500D02*
X127919800Y-156583500D01*
X126669800Y-114630200D02*
X126669800Y-155333500D01*
X129540000Y-111760000D02*
X126669800Y-114630200D01*
%TO.N,Net-(J10-Pad1)*%
X131170400Y-124825400D02*
X129540000Y-123195000D01*
X131170400Y-150444500D02*
X131170400Y-124825400D01*
X129540000Y-152074900D02*
X131170400Y-150444500D01*
X129540000Y-153675000D02*
X129540000Y-152074900D01*
X129540000Y-68580000D02*
X129540000Y-86360000D01*
X66040000Y-170180000D02*
X66040000Y-171780100D01*
X64439800Y-173380300D02*
X66040000Y-171780100D01*
X64439800Y-188899800D02*
X64439800Y-173380300D01*
X66040000Y-190500000D02*
X64439800Y-188899800D01*
X64439800Y-170179900D02*
X66040000Y-171780100D01*
X64439800Y-153060300D02*
X64439800Y-170179900D01*
X66040000Y-151460100D02*
X64439800Y-153060300D01*
X66040000Y-149860000D02*
X66040000Y-151460100D01*
X66040000Y-129540000D02*
X66040000Y-131140100D01*
X64407600Y-107587600D02*
X66040000Y-109220000D01*
X64407600Y-92132500D02*
X64407600Y-107587600D01*
X66040000Y-90500100D02*
X64407600Y-92132500D01*
X66040000Y-88900000D02*
X66040000Y-90500100D01*
X64439800Y-148259800D02*
X66040000Y-149860000D01*
X64439800Y-132740300D02*
X64439800Y-148259800D01*
X66040000Y-131140100D02*
X64439800Y-132740300D01*
X66040000Y-109220000D02*
X66040000Y-110820100D01*
X64439800Y-112420300D02*
X66040000Y-110820100D01*
X64439800Y-129539900D02*
X64439800Y-112420300D01*
X66040000Y-131140100D02*
X64439800Y-129539900D01*
%TO.N,Net-(J2-Pad1)*%
X103132400Y-104679900D02*
X103132500Y-104679900D01*
X103132400Y-87352700D02*
X103132400Y-104679900D01*
X103132500Y-87352600D02*
X103132400Y-87352700D01*
X103132500Y-85352500D02*
X103132500Y-87352600D01*
X103132500Y-106680000D02*
X103132500Y-104679900D01*
X92447600Y-145319900D02*
X92447500Y-145319900D01*
X92447600Y-129000200D02*
X92447600Y-145319900D01*
X92447500Y-129000100D02*
X92447600Y-129000200D01*
X92447500Y-127000000D02*
X92447500Y-129000100D01*
X92447500Y-147320000D02*
X92447500Y-145319900D01*
X107138400Y-151325900D02*
X103132500Y-147320000D01*
X107138400Y-155088500D02*
X107138400Y-151325900D01*
X103132300Y-159094600D02*
X107138400Y-155088500D01*
X103132300Y-165639700D02*
X103132300Y-159094600D01*
X103132500Y-165639900D02*
X103132300Y-165639700D01*
X103132500Y-167640000D02*
X103132500Y-165639900D01*
X103132500Y-127000000D02*
X103132500Y-124999900D01*
X103132500Y-106680000D02*
X103132500Y-108680100D01*
X93340900Y-88246000D02*
X93340900Y-92227100D01*
X92447500Y-87352600D02*
X93340900Y-88246000D01*
X92447500Y-85352500D02*
X92447500Y-87352600D01*
X92447600Y-169640100D02*
X92447500Y-169640100D01*
X92447600Y-177126000D02*
X92447600Y-169640100D01*
X88447200Y-181126400D02*
X92447600Y-177126000D01*
X88447200Y-182833500D02*
X88447200Y-181126400D01*
X91573600Y-185959900D02*
X88447200Y-182833500D01*
X92447500Y-185959900D02*
X91573600Y-185959900D01*
X92447500Y-187960000D02*
X92447500Y-185959900D01*
X92447500Y-167640000D02*
X92447500Y-169640100D01*
X114369900Y-75190200D02*
X114369900Y-85043600D01*
X119380000Y-70180100D02*
X114369900Y-75190200D01*
X119380000Y-68580000D02*
X119380000Y-70180100D01*
X103132400Y-113539300D02*
X101683800Y-113539300D01*
X103132400Y-124999800D02*
X103132400Y-113539300D01*
X103132500Y-124999900D02*
X103132400Y-124999800D01*
X103132400Y-108680100D02*
X103132500Y-108680100D01*
X103132400Y-113539300D02*
X103132400Y-108680100D01*
%TO.N,Net-(J1-Pad13)*%
X104140000Y-68580000D02*
X104140000Y-70180100D01*
X105132500Y-193960000D02*
X105132500Y-191959900D01*
X112138800Y-78178900D02*
X104140000Y-70180100D01*
X112138800Y-184953600D02*
X112138800Y-78178900D01*
X105132500Y-191959900D02*
X112138800Y-184953600D01*
%TO.N,Net-(J1-Pad12)*%
X101600000Y-68580000D02*
X101600000Y-70180100D01*
X110888700Y-79468800D02*
X101600000Y-70180100D01*
X110888700Y-170760700D02*
X110888700Y-79468800D01*
X99689400Y-181960000D02*
X110888700Y-170760700D01*
X90447500Y-181960000D02*
X99689400Y-181960000D01*
%TO.N,Net-(J1-Pad11)*%
X105132500Y-173640000D02*
X105132500Y-171639900D01*
X99060000Y-68580000D02*
X99060000Y-70180100D01*
X109638600Y-80758700D02*
X99060000Y-70180100D01*
X109638600Y-167133800D02*
X109638600Y-80758700D01*
X105132500Y-171639900D02*
X109638600Y-167133800D01*
%TO.N,Net-(J1-Pad10)*%
X90447500Y-161640000D02*
X90447500Y-159639900D01*
X95868200Y-74611400D02*
X93378600Y-72121800D01*
X95868200Y-154219200D02*
X95868200Y-74611400D01*
X90447500Y-159639900D02*
X95868200Y-154219200D01*
%TO.N,Net-(J1-Pad9)*%
X105132500Y-153320000D02*
X105132500Y-151319900D01*
X93980000Y-68580000D02*
X93980000Y-70180100D01*
X97118300Y-73318400D02*
X93980000Y-70180100D01*
X97118300Y-144930800D02*
X97118300Y-73318400D01*
X103507400Y-151319900D02*
X97118300Y-144930800D01*
X105132500Y-151319900D02*
X103507400Y-151319900D01*
%TO.N,Net-(J1-Pad8)*%
X90447500Y-141320000D02*
X90447500Y-139319900D01*
X91440000Y-74108500D02*
X91440000Y-68580000D01*
X94618100Y-77286600D02*
X91440000Y-74108500D01*
X94618100Y-119829200D02*
X94618100Y-77286600D01*
X88414400Y-126032900D02*
X94618100Y-119829200D01*
X88414400Y-137286800D02*
X88414400Y-126032900D01*
X90447500Y-139319900D02*
X88414400Y-137286800D01*
%TO.N,Net-(J1-Pad7)*%
X103498500Y-130999900D02*
X105132500Y-130999900D01*
X98806900Y-126308300D02*
X103498500Y-130999900D01*
X98806900Y-80974600D02*
X98806900Y-126308300D01*
X105132500Y-133000000D02*
X105132500Y-130999900D01*
X88900000Y-75059900D02*
X88900000Y-68580000D01*
%TO.N,Net-(J1-Pad6)*%
X90447500Y-121000000D02*
X90447500Y-118999900D01*
X86360000Y-68580000D02*
X86360000Y-70180100D01*
X86294600Y-70245500D02*
X86360000Y-70180100D01*
X86294600Y-114847000D02*
X86294600Y-70245500D01*
X90447500Y-118999900D02*
X86294600Y-114847000D01*
%TO.N,Net-(J1-Pad5)*%
X84275900Y-70221500D02*
X84275900Y-98679900D01*
%TO.N,Net-(J1-Pad4)*%
X90447500Y-100680000D02*
X90447500Y-98679900D01*
X87544800Y-95777200D02*
X87544800Y-72121800D01*
X90447500Y-98679900D02*
X87544800Y-95777200D01*
%TO.N,Net-(J1-Pad1)*%
X105132500Y-161640000D02*
X105132500Y-159639900D01*
X105132500Y-141320000D02*
X105132500Y-143320100D01*
X128600100Y-155275100D02*
X129540000Y-156215000D01*
X128379300Y-155275100D02*
X128600100Y-155275100D01*
X127939900Y-154835700D02*
X128379300Y-155275100D01*
X127939900Y-127335100D02*
X127939900Y-154835700D01*
X129540000Y-125735000D02*
X127939900Y-127335100D01*
X107135500Y-104683100D02*
X105132500Y-102680100D01*
X107135500Y-116996900D02*
X107135500Y-104683100D01*
X105132500Y-118999900D02*
X107135500Y-116996900D01*
X105132500Y-100680000D02*
X105132500Y-102680100D01*
X108388500Y-146576100D02*
X105132500Y-143320100D01*
X108388500Y-156383900D02*
X108388500Y-146576100D01*
X105132500Y-159639900D02*
X108388500Y-156383900D01*
X92508100Y-95413200D02*
X90447500Y-93352600D01*
X92508100Y-103048800D02*
X92508100Y-95413200D01*
X90447300Y-105109600D02*
X92508100Y-103048800D01*
X90447300Y-110679700D02*
X90447300Y-105109600D01*
X90447500Y-110679900D02*
X90447300Y-110679700D01*
X90447500Y-112680000D02*
X90447500Y-110679900D01*
X90447500Y-91352500D02*
X90447500Y-93352600D01*
X107135500Y-96676900D02*
X105132500Y-98679900D01*
X107135500Y-83355600D02*
X107135500Y-96676900D01*
X105132500Y-81352600D02*
X107135500Y-83355600D01*
X105132500Y-79352500D02*
X105132500Y-81352600D01*
X105132500Y-100680000D02*
X105132500Y-98679900D01*
X127939900Y-76200000D02*
X121920000Y-70180100D01*
X127939900Y-88900000D02*
X127939900Y-76200000D01*
X121920000Y-68580000D02*
X121920000Y-70180100D01*
X88438400Y-157329200D02*
X90447500Y-155320100D01*
X88438400Y-169630800D02*
X88438400Y-157329200D01*
X90447500Y-171639900D02*
X88438400Y-169630800D01*
X90447500Y-173640000D02*
X90447500Y-171639900D01*
X90447500Y-153320000D02*
X90447500Y-155320100D01*
X66040000Y-99060000D02*
X66040000Y-97459900D01*
X90447500Y-193960000D02*
X90447500Y-191959900D01*
X90447500Y-173640000D02*
X90447500Y-175640100D01*
X87197100Y-188709500D02*
X90447500Y-191959900D01*
X87197100Y-178890500D02*
X87197100Y-188709500D01*
X90447500Y-175640100D02*
X87197100Y-178890500D01*
X129540000Y-88900000D02*
X128252500Y-88900000D01*
X128252500Y-88900000D02*
X127939900Y-88900000D01*
X126279500Y-90560400D02*
X126279500Y-93462700D01*
X127939900Y-88900000D02*
X126279500Y-90560400D01*
X105132500Y-121000000D02*
X105132500Y-119999900D01*
X105132500Y-119999900D02*
X105132500Y-118999900D01*
X107135500Y-137316900D02*
X105132500Y-139319900D01*
X107135500Y-122002900D02*
X107135500Y-137316900D01*
X105132500Y-119999900D02*
X107135500Y-122002900D01*
X105132500Y-141320000D02*
X105132500Y-139319900D01*
X67640100Y-95859800D02*
X66040000Y-97459900D01*
X67640100Y-80340100D02*
X67640100Y-95859800D01*
X66040000Y-78740000D02*
X67640100Y-80340100D01*
X66040000Y-119380000D02*
X66040000Y-117779900D01*
X67640100Y-116179800D02*
X66040000Y-117779900D01*
X67640100Y-99060000D02*
X67640100Y-116179800D01*
X66040000Y-97459900D02*
X67640100Y-99060000D01*
%TD*%
M02*
