%TF.GenerationSoftware,KiCad,Pcbnew,(6.0.9)*%
%TF.CreationDate,2023-01-05T12:03:18+01:00*%
%TF.ProjectId,BMA,424d412e-6b69-4636-9164-5f7063625858,0.1*%
%TF.SameCoordinates,Original*%
%TF.FileFunction,Soldermask,Bot*%
%TF.FilePolarity,Negative*%
%FSLAX46Y46*%
G04 Gerber Fmt 4.6, Leading zero omitted, Abs format (unit mm)*
G04 Created by KiCad (PCBNEW (6.0.9)) date 2023-01-05 12:03:18*
%MOMM*%
%LPD*%
G01*
G04 APERTURE LIST*
%ADD10R,1.700000X1.700000*%
%ADD11O,1.700000X1.700000*%
%ADD12R,2.500000X2.500000*%
%ADD13O,2.500000X2.500000*%
G04 APERTURE END LIST*
D10*
%TO.C,J7*%
X147320000Y-86360000D03*
D11*
X147320000Y-88900000D03*
X147320000Y-91440000D03*
X147320000Y-93980000D03*
X147320000Y-96520000D03*
X147320000Y-99060000D03*
X147320000Y-101600000D03*
X147320000Y-104140000D03*
X147320000Y-106680000D03*
X147320000Y-109220000D03*
X147320000Y-111760000D03*
X147320000Y-114300000D03*
%TD*%
D10*
%TO.C,J5*%
X66040000Y-99060000D03*
D11*
X66040000Y-101600000D03*
X66040000Y-104140000D03*
X66040000Y-106680000D03*
X66040000Y-109220000D03*
%TD*%
D12*
%TO.C,K4*%
X103132500Y-106680000D03*
D13*
X105132500Y-112680000D03*
X117332500Y-112680000D03*
X117332500Y-100680000D03*
X105132500Y-100680000D03*
%TD*%
D10*
%TO.C,J2*%
X119380000Y-68580000D03*
D11*
X121920000Y-68580000D03*
%TD*%
D10*
%TO.C,J11*%
X66040000Y-139700000D03*
D11*
X66040000Y-142240000D03*
X66040000Y-144780000D03*
X66040000Y-147320000D03*
X66040000Y-149860000D03*
%TD*%
D12*
%TO.C,K11*%
X92447500Y-187960000D03*
D13*
X90447500Y-181960000D03*
X78247500Y-181960000D03*
X78247500Y-193960000D03*
X90447500Y-193960000D03*
%TD*%
D10*
%TO.C,J4*%
X66040000Y-78740000D03*
D11*
X66040000Y-81280000D03*
X66040000Y-83820000D03*
X66040000Y-86360000D03*
X66040000Y-88900000D03*
%TD*%
D12*
%TO.C,K12*%
X103132500Y-187960000D03*
D13*
X105132500Y-193960000D03*
X117332500Y-193960000D03*
X117332500Y-181960000D03*
X105132500Y-181960000D03*
%TD*%
D10*
%TO.C,J8*%
X66040000Y-119380000D03*
D11*
X66040000Y-121920000D03*
X66040000Y-124460000D03*
X66040000Y-127000000D03*
X66040000Y-129540000D03*
%TD*%
D10*
%TO.C,J6*%
X129540000Y-86360000D03*
D11*
X129540000Y-88900000D03*
X129540000Y-91440000D03*
X129540000Y-93980000D03*
X129540000Y-96520000D03*
X129540000Y-99060000D03*
X129540000Y-101600000D03*
X129540000Y-104140000D03*
X129540000Y-106680000D03*
X129540000Y-109220000D03*
X129540000Y-111760000D03*
X129540000Y-114300000D03*
%TD*%
D12*
%TO.C,K1*%
X92447500Y-85352500D03*
D13*
X90447500Y-79352500D03*
X78247500Y-79352500D03*
X78247500Y-91352500D03*
X90447500Y-91352500D03*
%TD*%
D12*
%TO.C,K3*%
X92447500Y-106680000D03*
D13*
X90447500Y-100680000D03*
X78247500Y-100680000D03*
X78247500Y-112680000D03*
X90447500Y-112680000D03*
%TD*%
D12*
%TO.C,K9*%
X92447500Y-167640000D03*
D13*
X90447500Y-161640000D03*
X78247500Y-161640000D03*
X78247500Y-173640000D03*
X90447500Y-173640000D03*
%TD*%
D10*
%TO.C,J12*%
X129540000Y-186700000D03*
D11*
X129540000Y-189240000D03*
X129540000Y-191780000D03*
X129540000Y-194320000D03*
%TD*%
D12*
%TO.C,K6*%
X103132500Y-127000000D03*
D13*
X105132500Y-133000000D03*
X117332500Y-133000000D03*
X117332500Y-121000000D03*
X105132500Y-121000000D03*
%TD*%
D10*
%TO.C,J9*%
X129540000Y-123195000D03*
D11*
X129540000Y-125735000D03*
X129540000Y-128275000D03*
X129540000Y-130815000D03*
X129540000Y-133355000D03*
X129540000Y-135895000D03*
X129540000Y-138435000D03*
X129540000Y-140975000D03*
X129540000Y-143515000D03*
X129540000Y-146055000D03*
%TD*%
D12*
%TO.C,K7*%
X92447500Y-147320000D03*
D13*
X90447500Y-141320000D03*
X78247500Y-141320000D03*
X78247500Y-153320000D03*
X90447500Y-153320000D03*
%TD*%
D10*
%TO.C,J13*%
X66040000Y-160020000D03*
D11*
X66040000Y-162560000D03*
X66040000Y-165100000D03*
X66040000Y-167640000D03*
X66040000Y-170180000D03*
%TD*%
D10*
%TO.C,J14*%
X66040000Y-180340000D03*
D11*
X66040000Y-182880000D03*
X66040000Y-185420000D03*
X66040000Y-187960000D03*
X66040000Y-190500000D03*
%TD*%
D10*
%TO.C,J1*%
X73660000Y-68580000D03*
D11*
X76200000Y-68580000D03*
X78740000Y-68580000D03*
X81280000Y-68580000D03*
X83820000Y-68580000D03*
X86360000Y-68580000D03*
X88900000Y-68580000D03*
X91440000Y-68580000D03*
X93980000Y-68580000D03*
X96520000Y-68580000D03*
X99060000Y-68580000D03*
X101600000Y-68580000D03*
X104140000Y-68580000D03*
X106680000Y-68580000D03*
X109220000Y-68580000D03*
%TD*%
D12*
%TO.C,K10*%
X103132500Y-167640000D03*
D13*
X105132500Y-173640000D03*
X117332500Y-173640000D03*
X117332500Y-161640000D03*
X105132500Y-161640000D03*
%TD*%
D10*
%TO.C,J3*%
X129540000Y-68580000D03*
D11*
X132080000Y-68580000D03*
%TD*%
D10*
%TO.C,J10*%
X129540000Y-153675000D03*
D11*
X129540000Y-156215000D03*
X129540000Y-158755000D03*
X129540000Y-161295000D03*
X129540000Y-163835000D03*
X129540000Y-166375000D03*
X129540000Y-168915000D03*
X129540000Y-171455000D03*
X129540000Y-173995000D03*
X129540000Y-176535000D03*
%TD*%
D12*
%TO.C,K5*%
X92447500Y-127000000D03*
D13*
X90447500Y-121000000D03*
X78247500Y-121000000D03*
X78247500Y-133000000D03*
X90447500Y-133000000D03*
%TD*%
D12*
%TO.C,K2*%
X103132500Y-85352500D03*
D13*
X105132500Y-91352500D03*
X117332500Y-91352500D03*
X117332500Y-79352500D03*
X105132500Y-79352500D03*
%TD*%
D12*
%TO.C,K8*%
X103132500Y-147320000D03*
D13*
X105132500Y-153320000D03*
X117332500Y-153320000D03*
X117332500Y-141320000D03*
X105132500Y-141320000D03*
%TD*%
M02*
