<?xml version="1.0" standalone="no"?>
 <!DOCTYPE svg PUBLIC "-//W3C//DTD SVG 1.1//EN" 
 "http://www.w3.org/Graphics/SVG/1.1/DTD/svg11.dtd"> 
<svg
  xmlns:svg="http://www.w3.org/2000/svg"
  xmlns="http://www.w3.org/2000/svg"
  xmlns:xlink="http://www.w3.org/1999/xlink"
  version="1.1"
  width="3.233420cm" height="3.649980cm" viewBox="0 0 32334200 36499800">
<title>SVG Picture created as AM-F_Silkscreen.svg date 2023/01/18 11:45:14 </title>
  <desc>Picture generated by PCBNEW </desc>
<g style="fill:#000000; fill-opacity:1.000000;stroke:#000000; stroke-opacity:1.000000;
stroke-linecap:round; stroke-linejoin:round;"
 transform="translate(0 0) scale(1 1)">
</g>
<g style="fill:#000000; fill-opacity:0.0; 
stroke:#000000; stroke-width:0.000000; stroke-opacity:1; 
stroke-linecap:round; stroke-linejoin:round;">
</g>
<g style="fill:#F2EDA1; fill-opacity:0.0; 
stroke:#F2EDA1; stroke-width:0.000000; stroke-opacity:1; 
stroke-linecap:round; stroke-linejoin:round;">
</g>
<g style="fill:#F2EDA1; fill-opacity:0.0; 
stroke:#F2EDA1; stroke-width:150000.000000; stroke-opacity:1; 
stroke-linecap:round; stroke-linejoin:round;">
<g transform="rotate(-90.000000 26335000.000000 10197500.000000)">
<text x="26335000.000000" y="10697500.000000"
textLength="13931429.000000" font-size="1200000.000000" lengthAdjust="spacingAndGlyphs"
text-anchor="middle" opacity="0">VCC SIG S2 S1 GND</text>
</g>
<g class="stroked-text"><desc>VCC SIG S2 S1 GND</desc>
<path d="M25787380 16947500
L26787380 16647500
L25787380 16347500
" />
<path d="M26692142 15533214
L26739761 15576071
L26787380 15704642
L26787380 15790357
L26739761 15918928
L26644523 16004642
L26549285 16047500
L26358809 16090357
L26215952 16090357
L26025476 16047500
L25930238 16004642
L25835000 15918928
L25787380 15790357
L25787380 15704642
L25835000 15576071
L25882619 15533214
" />
<path d="M26692142 14633214
L26739761 14676071
L26787380 14804642
L26787380 14890357
L26739761 15018928
L26644523 15104642
L26549285 15147500
L26358809 15190357
L26215952 15190357
L26025476 15147500
L25930238 15104642
L25835000 15018928
L25787380 14890357
L25787380 14804642
L25835000 14676071
L25882619 14633214
" />
<path d="M26739761 13604642
L26787380 13476071
L26787380 13261785
L26739761 13176071
L26692142 13133214
L26596904 13090357
L26501666 13090357
L26406428 13133214
L26358809 13176071
L26311190 13261785
L26263571 13433214
L26215952 13518928
L26168333 13561785
L26073095 13604642
L25977857 13604642
L25882619 13561785
L25835000 13518928
L25787380 13433214
L25787380 13218928
L25835000 13090357
" />
<path d="M26787380 12704642
L25787380 12704642
" />
<path d="M25835000 11804642
L25787380 11890357
L25787380 12018928
L25835000 12147500
L25930238 12233214
L26025476 12276071
L26215952 12318928
L26358809 12318928
L26549285 12276071
L26644523 12233214
L26739761 12147500
L26787380 12018928
L26787380 11933214
L26739761 11804642
L26692142 11761785
L26358809 11761785
L26358809 11933214
" />
<path d="M26739761 10733214
L26787380 10604642
L26787380 10390357
L26739761 10304642
L26692142 10261785
L26596904 10218928
L26501666 10218928
L26406428 10261785
L26358809 10304642
L26311190 10390357
L26263571 10561785
L26215952 10647500
L26168333 10690357
L26073095 10733214
L25977857 10733214
L25882619 10690357
L25835000 10647500
L25787380 10561785
L25787380 10347500
L25835000 10218928
" />
<path d="M25882619 9876071
L25835000 9833214
L25787380 9747500
L25787380 9533214
L25835000 9447500
L25882619 9404642
L25977857 9361785
L26073095 9361785
L26215952 9404642
L26787380 9918928
L26787380 9361785
" />
<path d="M26739761 8333214
L26787380 8204642
L26787380 7990357
L26739761 7904642
L26692142 7861785
L26596904 7818928
L26501666 7818928
L26406428 7861785
L26358809 7904642
L26311190 7990357
L26263571 8161785
L26215952 8247500
L26168333 8290357
L26073095 8333214
L25977857 8333214
L25882619 8290357
L25835000 8247500
L25787380 8161785
L25787380 7947500
L25835000 7818928
" />
<path d="M26787380 6961785
L26787380 7476071
" />
<path d="M26787380 7218928
L25787380 7218928
L25930238 7304642
L26025476 7390357
L26073095 7476071
" />
<path d="M25835000 5418928
L25787380 5504642
L25787380 5633214
L25835000 5761785
L25930238 5847500
L26025476 5890357
L26215952 5933214
L26358809 5933214
L26549285 5890357
L26644523 5847500
L26739761 5761785
L26787380 5633214
L26787380 5547500
L26739761 5418928
L26692142 5376071
L26358809 5376071
L26358809 5547500
" />
<path d="M26787380 4990357
L25787380 4990357
L26787380 4476071
L25787380 4476071
" />
<path d="M26787380 4047500
L25787380 4047500
L25787380 3833214
L25835000 3704642
L25930238 3618928
L26025476 3576071
L26215952 3533214
L26358809 3533214
L26549285 3576071
L26644523 3618928
L26739761 3704642
L26787380 3833214
L26787380 4047500
" />
</g><text x="13635000.000000" y="5617500.000000"
textLength="7352143.000000" font-size="1200000.000000" lengthAdjust="spacingAndGlyphs"
text-anchor="start" opacity="0">Air Module</text>
<g class="stroked-text"><desc>Air Module</desc>
<path d="M13903928 5284166
L14332500 5284166
" />
<path d="M13818214 5569880
L14118214 4569880
L14418214 5569880
" />
<path d="M14718214 5569880
L14718214 4903214
" />
<path d="M14718214 4569880
L14675357 4617500
L14718214 4665119
L14761071 4617500
L14718214 4569880
L14718214 4665119
" />
<path d="M15146785 5569880
L15146785 4903214
" />
<path d="M15146785 5093690
L15189642 4998452
L15232500 4950833
L15318214 4903214
L15403928 4903214
" />
<path d="M16389642 5569880
L16389642 4569880
L16689642 5284166
L16989642 4569880
L16989642 5569880
" />
<path d="M17546785 5569880
L17461071 5522261
L17418214 5474642
L17375357 5379404
L17375357 5093690
L17418214 4998452
L17461071 4950833
L17546785 4903214
L17675357 4903214
L17761071 4950833
L17803928 4998452
L17846785 5093690
L17846785 5379404
L17803928 5474642
L17761071 5522261
L17675357 5569880
L17546785 5569880
" />
<path d="M18618214 5569880
L18618214 4569880
" />
<path d="M18618214 5522261
L18532500 5569880
L18361071 5569880
L18275357 5522261
L18232500 5474642
L18189642 5379404
L18189642 5093690
L18232500 4998452
L18275357 4950833
L18361071 4903214
L18532500 4903214
L18618214 4950833
" />
<path d="M19432500 4903214
L19432500 5569880
" />
<path d="M19046785 4903214
L19046785 5427023
L19089642 5522261
L19175357 5569880
L19303928 5569880
L19389642 5522261
L19432500 5474642
" />
<path d="M19989642 5569880
L19903928 5522261
L19861071 5427023
L19861071 4569880
" />
<path d="M20675357 5522261
L20589642 5569880
L20418214 5569880
L20332500 5522261
L20289642 5427023
L20289642 5046071
L20332500 4950833
L20418214 4903214
L20589642 4903214
L20675357 4950833
L20718214 5046071
L20718214 5141309
L20289642 5236547
" />
</g><text x="28875000.000000" y="36097500.000000"
textLength="2195000.000000" font-size="1333333.000000" lengthAdjust="spacingAndGlyphs"
text-anchor="middle" opacity="0">H2</text>
<g class="stroked-text"><desc>H2</desc>
<path d="M28113095 36049880
L28113095 35049880
" />
<path d="M28113095 35526071
L28684523 35526071
" />
<path d="M28684523 36049880
L28684523 35049880
" />
<path d="M29113095 35145119
L29160714 35097500
L29255952 35049880
L29494047 35049880
L29589285 35097500
L29636904 35145119
L29684523 35240357
L29684523 35335595
L29636904 35478452
L29065476 36049880
L29684523 36049880
" />
</g><text x="3475000.000000" y="1417500.000000"
textLength="2195000.000000" font-size="1333333.000000" lengthAdjust="spacingAndGlyphs"
text-anchor="middle" opacity="0">H1</text>
<g class="stroked-text"><desc>H1</desc>
<path d="M2713095 1369880
L2713095 369880
" />
<path d="M2713095 846071
L3284523 846071
" />
<path d="M3284523 1369880
L3284523 369880
" />
<path d="M4284523 1369880
L3713095 1369880
" />
<path d="M3998809 1369880
L3998809 369880
L3903571 512738
L3808333 607976
L3713095 655595
" />
</g><g transform="rotate(-90.000000 15055000.000000 27972500.000000)">
<text x="15055000.000000" y="28472500.000000"
textLength="2147381.000000" font-size="1333333.000000" lengthAdjust="spacingAndGlyphs"
text-anchor="middle" opacity="0">D2</text>
</g>
<g class="stroked-text"><desc>D2</desc>
<path d="M15507380 28710595
L14507380 28710595
L14507380 28472500
L14555000 28329642
L14650238 28234404
L14745476 28186785
L14935952 28139166
L15078809 28139166
L15269285 28186785
L15364523 28234404
L15459761 28329642
L15507380 28472500
L15507380 28710595
" />
<path d="M14602619 27758214
L14555000 27710595
L14507380 27615357
L14507380 27377261
L14555000 27282023
L14602619 27234404
L14697857 27186785
L14793095 27186785
L14935952 27234404
L15507380 27805833
L15507380 27186785
" />
</g><g transform="rotate(-90.000000 15055000.000000 19637500.000000)">
<text x="15055000.000000" y="20137500.000000"
textLength="2147381.000000" font-size="1333333.000000" lengthAdjust="spacingAndGlyphs"
text-anchor="middle" opacity="0">D1</text>
</g>
<g class="stroked-text"><desc>D1</desc>
<path d="M15507380 20375595
L14507380 20375595
L14507380 20137500
L14555000 19994642
L14650238 19899404
L14745476 19851785
L14935952 19804166
L15078809 19804166
L15269285 19851785
L15364523 19899404
L15459761 19994642
L15507380 20137500
L15507380 20375595
" />
<path d="M15507380 18851785
L15507380 19423214
" />
<path d="M15507380 19137500
L14507380 19137500
L14650238 19232738
L14745476 19327976
L14793095 19423214
" />
</g><g transform="rotate(-90.000000 6015000.000000 9087500.000000)">
<text x="6015000.000000" y="9587500.000000"
textLength="5242619.000000" font-size="1333333.000000" lengthAdjust="spacingAndGlyphs"
text-anchor="end" opacity="0">Sensor</text>
</g>
<g class="stroked-text"><desc>Sensor</desc>
<path d="M6419761 14042142
L6467380 13899285
L6467380 13661190
L6419761 13565952
L6372142 13518333
L6276904 13470714
L6181666 13470714
L6086428 13518333
L6038809 13565952
L5991190 13661190
L5943571 13851666
L5895952 13946904
L5848333 13994523
L5753095 14042142
L5657857 14042142
L5562619 13994523
L5515000 13946904
L5467380 13851666
L5467380 13613571
L5515000 13470714
" />
<path d="M6419761 12661190
L6467380 12756428
L6467380 12946904
L6419761 13042142
L6324523 13089761
L5943571 13089761
L5848333 13042142
L5800714 12946904
L5800714 12756428
L5848333 12661190
L5943571 12613571
L6038809 12613571
L6134047 13089761
" />
<path d="M5800714 12185000
L6467380 12185000
" />
<path d="M5895952 12185000
L5848333 12137380
L5800714 12042142
L5800714 11899285
L5848333 11804047
L5943571 11756428
L6467380 11756428
" />
<path d="M6419761 11327857
L6467380 11232619
L6467380 11042142
L6419761 10946904
L6324523 10899285
L6276904 10899285
L6181666 10946904
L6134047 11042142
L6134047 11185000
L6086428 11280238
L5991190 11327857
L5943571 11327857
L5848333 11280238
L5800714 11185000
L5800714 11042142
L5848333 10946904
" />
<path d="M6467380 10327857
L6419761 10423095
L6372142 10470714
L6276904 10518333
L5991190 10518333
L5895952 10470714
L5848333 10423095
L5800714 10327857
L5800714 10185000
L5848333 10089761
L5895952 10042142
L5991190 9994523
L6276904 9994523
L6372142 10042142
L6419761 10089761
L6467380 10185000
L6467380 10327857
" />
<path d="M6467380 9565952
L5800714 9565952
" />
<path d="M5991190 9565952
L5895952 9518333
L5848333 9470714
L5800714 9375476
L5800714 9280238
" />
</g><g transform="rotate(-90.000000 3475000.000000 16037500.000000)">
<text x="3475000.000000" y="16537500.000000"
textLength="2099762.000000" font-size="1333333.000000" lengthAdjust="spacingAndGlyphs"
text-anchor="middle" opacity="0">S1</text>
</g>
<g class="stroked-text"><desc>S1</desc>
<path d="M3879761 16799404
L3927380 16656547
L3927380 16418452
L3879761 16323214
L3832142 16275595
L3736904 16227976
L3641666 16227976
L3546428 16275595
L3498809 16323214
L3451190 16418452
L3403571 16608928
L3355952 16704166
L3308333 16751785
L3213095 16799404
L3117857 16799404
L3022619 16751785
L2975000 16704166
L2927380 16608928
L2927380 16370833
L2975000 16227976
" />
<path d="M3927380 15275595
L3927380 15847023
" />
<path d="M3927380 15561309
L2927380 15561309
L3070238 15656547
L3165476 15751785
L3213095 15847023
" />
</g><text x="21255000.000000" y="25282500.000000"
textLength="2147381.000000" font-size="1333333.000000" lengthAdjust="spacingAndGlyphs"
text-anchor="middle" opacity="0">R2</text>
<g class="stroked-text"><desc>R2</desc>
<path d="M21088333 25234880
L20755000 24758690
" />
<path d="M20516904 25234880
L20516904 24234880
L20897857 24234880
L20993095 24282500
L21040714 24330119
L21088333 24425357
L21088333 24568214
L21040714 24663452
L20993095 24711071
L20897857 24758690
L20516904 24758690
" />
<path d="M21469285 24330119
L21516904 24282500
L21612142 24234880
L21850238 24234880
L21945476 24282500
L21993095 24330119
L22040714 24425357
L22040714 24520595
L21993095 24663452
L21421666 25234880
L22040714 25234880
" />
</g><g transform="rotate(-90.000000 3475000.000000 24372500.000000)">
<text x="3475000.000000" y="24872500.000000"
textLength="2099762.000000" font-size="1333333.000000" lengthAdjust="spacingAndGlyphs"
text-anchor="middle" opacity="0">S2</text>
</g>
<g class="stroked-text"><desc>S2</desc>
<path d="M3879761 25134404
L3927380 24991547
L3927380 24753452
L3879761 24658214
L3832142 24610595
L3736904 24562976
L3641666 24562976
L3546428 24610595
L3498809 24658214
L3451190 24753452
L3403571 24943928
L3355952 25039166
L3308333 25086785
L3213095 25134404
L3117857 25134404
L3022619 25086785
L2975000 25039166
L2927380 24943928
L2927380 24705833
L2975000 24562976
" />
<path d="M3022619 24182023
L2975000 24134404
L2927380 24039166
L2927380 23801071
L2975000 23705833
L3022619 23658214
L3117857 23610595
L3213095 23610595
L3355952 23658214
L3927380 24229642
L3927380 23610595
" />
</g><text x="21255000.000000" y="16947500.000000"
textLength="2147381.000000" font-size="1333333.000000" lengthAdjust="spacingAndGlyphs"
text-anchor="middle" opacity="0">R1</text>
<g class="stroked-text"><desc>R1</desc>
<path d="M21088333 16899880
L20755000 16423690
" />
<path d="M20516904 16899880
L20516904 15899880
L20897857 15899880
L20993095 15947500
L21040714 15995119
L21088333 16090357
L21088333 16233214
L21040714 16328452
L20993095 16376071
L20897857 16423690
L20516904 16423690
" />
<path d="M22040714 16899880
L21469285 16899880
" />
<path d="M21755000 16899880
L21755000 15899880
L21659761 16042738
L21564523 16137976
L21469285 16185595
" />
</g></g>
<g style="fill:#F2EDA1; fill-opacity:0.0; 
stroke:#F2EDA1; stroke-width:120000.000000; stroke-opacity:1; 
stroke-linecap:round; stroke-linejoin:round;">
<path d="M12640000 25412500
L9550000 25412500
" />
<path d="M11094538.000006 30962499.964307 A2990000.000000 2990000.000000 0.0 0 0 12639830.023423 25412499.961185" />
<path d="M9550169.976577 25412499.961185 A2990000.000000 2990000.000000 0.0 0 0 11095461.999994 30962499.964307" />
<circle cx="11095000.000000" cy="27972500.000000" r="2500000.000000" /> 
<path d="M30205000 6392500
L30205000 16612500
" />
<path d="M27545000 6392500
L30205000 6392500
" />
<path d="M27545000 5122500
L27545000 3792500
" />
<path d="M27545000 16612500
L30205000 16612500
" />
<path d="M27545000 6392500
L27545000 16612500
" />
<path d="M27545000 3792500
L28875000 3792500
" />
<path d="M12640000 17077500
L9550000 17077500
" />
<path d="M11094538.000006 22627499.964307 A2990000.000000 2990000.000000 0.0 0 0 12639830.023423 17077499.961185" />
<path d="M9550169.976577 17077499.961185 A2990000.000000 2990000.000000 0.0 0 0 11095461.999994 22627499.964307" />
<circle cx="11095000.000000" cy="19637500.000000" r="2500000.000000" /> 
<path d="M9885000 6387500
L9885000 14067500
" />
<path d="M7225000 14067500
L9885000 14067500
" />
<path d="M7225000 6387500
L7225000 14067500
" />
<path d="M7225000 6387500
L9885000 6387500
" />
<path d="M7225000 3787500
L8555000 3787500
" />
<path d="M7225000 5117500
L7225000 3787500
" />
<path d="M2145000 19637500
L2145000 22237500
" />
<path d="M4805000 19637500
L4805000 22237500
" />
<path d="M2145000 22237500
L4805000 22237500
" />
<path d="M2145000 19637500
L4805000 19637500
" />
<path d="M2145000 17037500
L3475000 17037500
" />
<path d="M2145000 18367500
L2145000 17037500
" />
<path d="M23175000 27622500
L23175000 25782500
" />
<path d="M19335000 25782500
L19335000 27622500
" />
<path d="M23175000 25782500
L19335000 25782500
" />
<path d="M18385000 26702500
L19335000 26702500
" />
<path d="M24125000 26702500
L23175000 26702500
" />
<path d="M19335000 27622500
L23175000 27622500
" />
<path d="M4805000 27972500
L4805000 30572500
" />
<path d="M2145000 26702500
L2145000 25372500
" />
<path d="M2145000 25372500
L3475000 25372500
" />
<path d="M2145000 30572500
L4805000 30572500
" />
<path d="M2145000 27972500
L4805000 27972500
" />
<path d="M2145000 27972500
L2145000 30572500
" />
<path d="M19335000 17447500
L19335000 19287500
" />
<path d="M24125000 18367500
L23175000 18367500
" />
<path d="M23175000 17447500
L19335000 17447500
" />
<path d="M23175000 19287500
L23175000 17447500
" />
<path d="M19335000 19287500
L23175000 19287500
" />
<path d="M18385000 18367500
L19335000 18367500
" />
<g >
</g>
<g >
</g>
<g >
</g>
<g >
</g>
<g >
</g>
<g >
</g>
<g >
</g>
<g >
</g>
<g >
</g>
<g >
</g>
<g >
</g>
<g >
</g>
<g >
</g>
</g>
<g style="fill:#000000; fill-opacity:0.0; 
stroke:#000000; stroke-width:120000.000000; stroke-opacity:1; 
stroke-linecap:round; stroke-linejoin:round;">
</g>
<g style="fill:#D0D2CD; fill-opacity:0.0; 
stroke:#D0D2CD; stroke-width:120000.000000; stroke-opacity:1; 
stroke-linecap:round; stroke-linejoin:round;">
</g>
<g style="fill:#D0D2CD; fill-opacity:0.0; 
stroke:#D0D2CD; stroke-width:100000.000000; stroke-opacity:1; 
stroke-linecap:round; stroke-linejoin:round;">
<path d="M935000 2577500
L31415000 2577500
" />
<path d="M31415000 2577500
L31415000 33057500
" />
<path d="M31415000 33057500
L935000 33057500
" />
<path d="M935000 33057500
L935000 2577500
" />
<g >
</g>
<g >
</g>
<g >
</g>
<g >
</g>
<g >
</g>
<g >
</g>
<g >
</g>
<g >
</g>
<g >
</g>
<g >
</g>
<g >
</g>
<g >
</g>
<g >
</g>
</g> 
</svg>
