%TF.GenerationSoftware,KiCad,Pcbnew,(6.0.9)*%
%TF.CreationDate,2023-01-03T15:08:54+01:00*%
%TF.ProjectId,AM,414d2e6b-6963-4616-945f-706362585858,rev?*%
%TF.SameCoordinates,Original*%
%TF.FileFunction,Copper,L2,Bot*%
%TF.FilePolarity,Positive*%
%FSLAX46Y46*%
G04 Gerber Fmt 4.6, Leading zero omitted, Abs format (unit mm)*
G04 Created by KiCad (PCBNEW (6.0.9)) date 2023-01-03 15:08:54*
%MOMM*%
%LPD*%
G01*
G04 APERTURE LIST*
%TA.AperFunction,ComponentPad*%
%ADD10C,3.200000*%
%TD*%
%TA.AperFunction,ComponentPad*%
%ADD11R,1.800000X1.800000*%
%TD*%
%TA.AperFunction,ComponentPad*%
%ADD12C,1.800000*%
%TD*%
%TA.AperFunction,ComponentPad*%
%ADD13R,1.700000X1.700000*%
%TD*%
%TA.AperFunction,ComponentPad*%
%ADD14O,1.700000X1.700000*%
%TD*%
%TA.AperFunction,ComponentPad*%
%ADD15C,1.400000*%
%TD*%
%TA.AperFunction,ComponentPad*%
%ADD16O,1.400000X1.400000*%
%TD*%
%TA.AperFunction,Conductor*%
%ADD17C,0.400000*%
%TD*%
G04 APERTURE END LIST*
D10*
%TO.P,H2,*%
%TO.N,*%
X190500000Y-106680000D03*
%TD*%
D11*
%TO.P,D2,1,K*%
%TO.N,Net-(D1-Pad1)*%
X172720000Y-102865000D03*
D12*
%TO.P,D2,2,A*%
%TO.N,Net-(D2-Pad2)*%
X172720000Y-105405000D03*
%TD*%
D13*
%TO.P,J4,1,Pin_1*%
%TO.N,Net-(D1-Pad1)*%
X190500000Y-81285000D03*
D14*
%TO.P,J4,2,Pin_2*%
%TO.N,Net-(J1-Pad1)*%
X190500000Y-83825000D03*
%TO.P,J4,3,Pin_3*%
%TO.N,Net-(J2-Pad1)*%
X190500000Y-86365000D03*
%TO.P,J4,4,Pin_4*%
%TO.N,Net-(J3-Pad3)*%
X190500000Y-88905000D03*
%TO.P,J4,5,Pin_5*%
%TO.N,Net-(J3-Pad2)*%
X190500000Y-91445000D03*
%TD*%
D11*
%TO.P,D1,1,K*%
%TO.N,Net-(D1-Pad1)*%
X172720000Y-94530000D03*
D12*
%TO.P,D1,2,A*%
%TO.N,Net-(D1-Pad2)*%
X172720000Y-97070000D03*
%TD*%
D10*
%TO.P,H1,*%
%TO.N,*%
X165100000Y-81280000D03*
%TD*%
D13*
%TO.P,Sensor,1,Pin_1*%
%TO.N,unconnected-(J3-Pad1)*%
X170180000Y-81280000D03*
D14*
%TO.P,Sensor,2,Pin_2*%
%TO.N,Net-(J3-Pad2)*%
X170180000Y-83820000D03*
%TO.P,Sensor,3,Pin_3*%
%TO.N,Net-(J3-Pad3)*%
X170180000Y-86360000D03*
%TO.P,Sensor,4,Pin_4*%
%TO.N,Net-(D1-Pad1)*%
X170180000Y-88900000D03*
%TD*%
D13*
%TO.P,S1,1,Pin_1*%
%TO.N,Net-(J1-Pad1)*%
X165100000Y-94530000D03*
D14*
%TO.P,S1,2,Pin_2*%
%TO.N,Net-(D1-Pad1)*%
X165100000Y-97070000D03*
%TD*%
D15*
%TO.P,R2,1*%
%TO.N,Net-(D2-Pad2)*%
X179070000Y-102865000D03*
D16*
%TO.P,R2,2*%
%TO.N,Net-(J2-Pad1)*%
X186690000Y-102865000D03*
%TD*%
D13*
%TO.P,S2,1,Pin_1*%
%TO.N,Net-(J2-Pad1)*%
X165100000Y-102865000D03*
D14*
%TO.P,S2,2,Pin_2*%
%TO.N,Net-(D1-Pad1)*%
X165100000Y-105405000D03*
%TD*%
D15*
%TO.P,R1,1*%
%TO.N,Net-(D1-Pad2)*%
X179070000Y-94530000D03*
D16*
%TO.P,R1,2*%
%TO.N,Net-(J1-Pad1)*%
X186690000Y-94530000D03*
%TD*%
D17*
%TO.N,Net-(D1-Pad1)*%
X165100000Y-97070000D02*
X165100000Y-98370100D01*
X172720000Y-92740100D02*
X172720000Y-94530000D01*
X170180000Y-90200100D02*
X172720000Y-92740100D01*
X165100000Y-98370100D02*
X163799800Y-99670300D01*
X163799800Y-99670300D02*
X163799800Y-104104800D01*
X163799800Y-104104800D02*
X165100000Y-105405000D01*
X170180000Y-88900000D02*
X170180000Y-90200100D01*
%TO.N,Net-(J3-Pad2)*%
X181574900Y-83820000D02*
X189199900Y-91445000D01*
X170180000Y-83820000D02*
X181574900Y-83820000D01*
X190500000Y-91445000D02*
X189199900Y-91445000D01*
%TO.N,Net-(J2-Pad1)*%
X191803000Y-96601900D02*
X191803000Y-87668000D01*
X191803000Y-87668000D02*
X190500000Y-86365000D01*
X186690000Y-101714900D02*
X191803000Y-96601900D01*
X186690000Y-102865000D02*
X186690000Y-101714900D01*
%TD*%
M02*
