%TF.GenerationSoftware,KiCad,Pcbnew,(6.0.9)*%
%TF.CreationDate,2023-01-03T15:08:54+01:00*%
%TF.ProjectId,AM,414d2e6b-6963-4616-945f-706362585858,rev?*%
%TF.SameCoordinates,Original*%
%TF.FileFunction,Legend,Top*%
%TF.FilePolarity,Positive*%
%FSLAX46Y46*%
G04 Gerber Fmt 4.6, Leading zero omitted, Abs format (unit mm)*
G04 Created by KiCad (PCBNEW (6.0.9)) date 2023-01-03 15:08:54*
%MOMM*%
%LPD*%
G01*
G04 APERTURE LIST*
%ADD10C,0.150000*%
%ADD11C,0.120000*%
G04 APERTURE END LIST*
D10*
X187412380Y-93110000D02*
X188412380Y-92810000D01*
X187412380Y-92510000D01*
X188317142Y-91695714D02*
X188364761Y-91738571D01*
X188412380Y-91867142D01*
X188412380Y-91952857D01*
X188364761Y-92081428D01*
X188269523Y-92167142D01*
X188174285Y-92210000D01*
X187983809Y-92252857D01*
X187840952Y-92252857D01*
X187650476Y-92210000D01*
X187555238Y-92167142D01*
X187460000Y-92081428D01*
X187412380Y-91952857D01*
X187412380Y-91867142D01*
X187460000Y-91738571D01*
X187507619Y-91695714D01*
X188317142Y-90795714D02*
X188364761Y-90838571D01*
X188412380Y-90967142D01*
X188412380Y-91052857D01*
X188364761Y-91181428D01*
X188269523Y-91267142D01*
X188174285Y-91310000D01*
X187983809Y-91352857D01*
X187840952Y-91352857D01*
X187650476Y-91310000D01*
X187555238Y-91267142D01*
X187460000Y-91181428D01*
X187412380Y-91052857D01*
X187412380Y-90967142D01*
X187460000Y-90838571D01*
X187507619Y-90795714D01*
X188364761Y-89767142D02*
X188412380Y-89638571D01*
X188412380Y-89424285D01*
X188364761Y-89338571D01*
X188317142Y-89295714D01*
X188221904Y-89252857D01*
X188126666Y-89252857D01*
X188031428Y-89295714D01*
X187983809Y-89338571D01*
X187936190Y-89424285D01*
X187888571Y-89595714D01*
X187840952Y-89681428D01*
X187793333Y-89724285D01*
X187698095Y-89767142D01*
X187602857Y-89767142D01*
X187507619Y-89724285D01*
X187460000Y-89681428D01*
X187412380Y-89595714D01*
X187412380Y-89381428D01*
X187460000Y-89252857D01*
X188412380Y-88867142D02*
X187412380Y-88867142D01*
X187460000Y-87967142D02*
X187412380Y-88052857D01*
X187412380Y-88181428D01*
X187460000Y-88310000D01*
X187555238Y-88395714D01*
X187650476Y-88438571D01*
X187840952Y-88481428D01*
X187983809Y-88481428D01*
X188174285Y-88438571D01*
X188269523Y-88395714D01*
X188364761Y-88310000D01*
X188412380Y-88181428D01*
X188412380Y-88095714D01*
X188364761Y-87967142D01*
X188317142Y-87924285D01*
X187983809Y-87924285D01*
X187983809Y-88095714D01*
X188364761Y-86895714D02*
X188412380Y-86767142D01*
X188412380Y-86552857D01*
X188364761Y-86467142D01*
X188317142Y-86424285D01*
X188221904Y-86381428D01*
X188126666Y-86381428D01*
X188031428Y-86424285D01*
X187983809Y-86467142D01*
X187936190Y-86552857D01*
X187888571Y-86724285D01*
X187840952Y-86810000D01*
X187793333Y-86852857D01*
X187698095Y-86895714D01*
X187602857Y-86895714D01*
X187507619Y-86852857D01*
X187460000Y-86810000D01*
X187412380Y-86724285D01*
X187412380Y-86510000D01*
X187460000Y-86381428D01*
X187507619Y-86038571D02*
X187460000Y-85995714D01*
X187412380Y-85910000D01*
X187412380Y-85695714D01*
X187460000Y-85610000D01*
X187507619Y-85567142D01*
X187602857Y-85524285D01*
X187698095Y-85524285D01*
X187840952Y-85567142D01*
X188412380Y-86081428D01*
X188412380Y-85524285D01*
X188364761Y-84495714D02*
X188412380Y-84367142D01*
X188412380Y-84152857D01*
X188364761Y-84067142D01*
X188317142Y-84024285D01*
X188221904Y-83981428D01*
X188126666Y-83981428D01*
X188031428Y-84024285D01*
X187983809Y-84067142D01*
X187936190Y-84152857D01*
X187888571Y-84324285D01*
X187840952Y-84410000D01*
X187793333Y-84452857D01*
X187698095Y-84495714D01*
X187602857Y-84495714D01*
X187507619Y-84452857D01*
X187460000Y-84410000D01*
X187412380Y-84324285D01*
X187412380Y-84110000D01*
X187460000Y-83981428D01*
X188412380Y-83124285D02*
X188412380Y-83638571D01*
X188412380Y-83381428D02*
X187412380Y-83381428D01*
X187555238Y-83467142D01*
X187650476Y-83552857D01*
X187698095Y-83638571D01*
X187460000Y-81581428D02*
X187412380Y-81667142D01*
X187412380Y-81795714D01*
X187460000Y-81924285D01*
X187555238Y-82010000D01*
X187650476Y-82052857D01*
X187840952Y-82095714D01*
X187983809Y-82095714D01*
X188174285Y-82052857D01*
X188269523Y-82010000D01*
X188364761Y-81924285D01*
X188412380Y-81795714D01*
X188412380Y-81710000D01*
X188364761Y-81581428D01*
X188317142Y-81538571D01*
X187983809Y-81538571D01*
X187983809Y-81710000D01*
X188412380Y-81152857D02*
X187412380Y-81152857D01*
X188412380Y-80638571D01*
X187412380Y-80638571D01*
X188412380Y-80210000D02*
X187412380Y-80210000D01*
X187412380Y-79995714D01*
X187460000Y-79867142D01*
X187555238Y-79781428D01*
X187650476Y-79738571D01*
X187840952Y-79695714D01*
X187983809Y-79695714D01*
X188174285Y-79738571D01*
X188269523Y-79781428D01*
X188364761Y-79867142D01*
X188412380Y-79995714D01*
X188412380Y-80210000D01*
X175528928Y-81446666D02*
X175957500Y-81446666D01*
X175443214Y-81732380D02*
X175743214Y-80732380D01*
X176043214Y-81732380D01*
X176343214Y-81732380D02*
X176343214Y-81065714D01*
X176343214Y-80732380D02*
X176300357Y-80780000D01*
X176343214Y-80827619D01*
X176386071Y-80780000D01*
X176343214Y-80732380D01*
X176343214Y-80827619D01*
X176771785Y-81732380D02*
X176771785Y-81065714D01*
X176771785Y-81256190D02*
X176814642Y-81160952D01*
X176857500Y-81113333D01*
X176943214Y-81065714D01*
X177028928Y-81065714D01*
X178014642Y-81732380D02*
X178014642Y-80732380D01*
X178314642Y-81446666D01*
X178614642Y-80732380D01*
X178614642Y-81732380D01*
X179171785Y-81732380D02*
X179086071Y-81684761D01*
X179043214Y-81637142D01*
X179000357Y-81541904D01*
X179000357Y-81256190D01*
X179043214Y-81160952D01*
X179086071Y-81113333D01*
X179171785Y-81065714D01*
X179300357Y-81065714D01*
X179386071Y-81113333D01*
X179428928Y-81160952D01*
X179471785Y-81256190D01*
X179471785Y-81541904D01*
X179428928Y-81637142D01*
X179386071Y-81684761D01*
X179300357Y-81732380D01*
X179171785Y-81732380D01*
X180243214Y-81732380D02*
X180243214Y-80732380D01*
X180243214Y-81684761D02*
X180157500Y-81732380D01*
X179986071Y-81732380D01*
X179900357Y-81684761D01*
X179857500Y-81637142D01*
X179814642Y-81541904D01*
X179814642Y-81256190D01*
X179857500Y-81160952D01*
X179900357Y-81113333D01*
X179986071Y-81065714D01*
X180157500Y-81065714D01*
X180243214Y-81113333D01*
X181057500Y-81065714D02*
X181057500Y-81732380D01*
X180671785Y-81065714D02*
X180671785Y-81589523D01*
X180714642Y-81684761D01*
X180800357Y-81732380D01*
X180928928Y-81732380D01*
X181014642Y-81684761D01*
X181057500Y-81637142D01*
X181614642Y-81732380D02*
X181528928Y-81684761D01*
X181486071Y-81589523D01*
X181486071Y-80732380D01*
X182300357Y-81684761D02*
X182214642Y-81732380D01*
X182043214Y-81732380D01*
X181957500Y-81684761D01*
X181914642Y-81589523D01*
X181914642Y-81208571D01*
X181957500Y-81113333D01*
X182043214Y-81065714D01*
X182214642Y-81065714D01*
X182300357Y-81113333D01*
X182343214Y-81208571D01*
X182343214Y-81303809D01*
X181914642Y-81399047D01*
%TO.C,H2*%
X194818095Y-107132380D02*
X194818095Y-106132380D01*
X194818095Y-106608571D02*
X195389523Y-106608571D01*
X195389523Y-107132380D02*
X195389523Y-106132380D01*
X195818095Y-106227619D02*
X195865714Y-106180000D01*
X195960952Y-106132380D01*
X196199047Y-106132380D01*
X196294285Y-106180000D01*
X196341904Y-106227619D01*
X196389523Y-106322857D01*
X196389523Y-106418095D01*
X196341904Y-106560952D01*
X195770476Y-107132380D01*
X196389523Y-107132380D01*
%TO.C,D2*%
X177132380Y-104873095D02*
X176132380Y-104873095D01*
X176132380Y-104635000D01*
X176180000Y-104492142D01*
X176275238Y-104396904D01*
X176370476Y-104349285D01*
X176560952Y-104301666D01*
X176703809Y-104301666D01*
X176894285Y-104349285D01*
X176989523Y-104396904D01*
X177084761Y-104492142D01*
X177132380Y-104635000D01*
X177132380Y-104873095D01*
X176227619Y-103920714D02*
X176180000Y-103873095D01*
X176132380Y-103777857D01*
X176132380Y-103539761D01*
X176180000Y-103444523D01*
X176227619Y-103396904D01*
X176322857Y-103349285D01*
X176418095Y-103349285D01*
X176560952Y-103396904D01*
X177132380Y-103968333D01*
X177132380Y-103349285D01*
%TO.C,D1*%
X177132380Y-96538095D02*
X176132380Y-96538095D01*
X176132380Y-96300000D01*
X176180000Y-96157142D01*
X176275238Y-96061904D01*
X176370476Y-96014285D01*
X176560952Y-95966666D01*
X176703809Y-95966666D01*
X176894285Y-96014285D01*
X176989523Y-96061904D01*
X177084761Y-96157142D01*
X177132380Y-96300000D01*
X177132380Y-96538095D01*
X177132380Y-95014285D02*
X177132380Y-95585714D01*
X177132380Y-95300000D02*
X176132380Y-95300000D01*
X176275238Y-95395238D01*
X176370476Y-95490476D01*
X176418095Y-95585714D01*
%TO.C,H1*%
X164338095Y-77532380D02*
X164338095Y-76532380D01*
X164338095Y-77008571D02*
X164909523Y-77008571D01*
X164909523Y-77532380D02*
X164909523Y-76532380D01*
X165909523Y-77532380D02*
X165338095Y-77532380D01*
X165623809Y-77532380D02*
X165623809Y-76532380D01*
X165528571Y-76675238D01*
X165433333Y-76770476D01*
X165338095Y-76818095D01*
%TO.C,Sensor*%
X168044761Y-90204642D02*
X168092380Y-90061785D01*
X168092380Y-89823690D01*
X168044761Y-89728452D01*
X167997142Y-89680833D01*
X167901904Y-89633214D01*
X167806666Y-89633214D01*
X167711428Y-89680833D01*
X167663809Y-89728452D01*
X167616190Y-89823690D01*
X167568571Y-90014166D01*
X167520952Y-90109404D01*
X167473333Y-90157023D01*
X167378095Y-90204642D01*
X167282857Y-90204642D01*
X167187619Y-90157023D01*
X167140000Y-90109404D01*
X167092380Y-90014166D01*
X167092380Y-89776071D01*
X167140000Y-89633214D01*
X168044761Y-88823690D02*
X168092380Y-88918928D01*
X168092380Y-89109404D01*
X168044761Y-89204642D01*
X167949523Y-89252261D01*
X167568571Y-89252261D01*
X167473333Y-89204642D01*
X167425714Y-89109404D01*
X167425714Y-88918928D01*
X167473333Y-88823690D01*
X167568571Y-88776071D01*
X167663809Y-88776071D01*
X167759047Y-89252261D01*
X167425714Y-88347500D02*
X168092380Y-88347500D01*
X167520952Y-88347500D02*
X167473333Y-88299880D01*
X167425714Y-88204642D01*
X167425714Y-88061785D01*
X167473333Y-87966547D01*
X167568571Y-87918928D01*
X168092380Y-87918928D01*
X168044761Y-87490357D02*
X168092380Y-87395119D01*
X168092380Y-87204642D01*
X168044761Y-87109404D01*
X167949523Y-87061785D01*
X167901904Y-87061785D01*
X167806666Y-87109404D01*
X167759047Y-87204642D01*
X167759047Y-87347500D01*
X167711428Y-87442738D01*
X167616190Y-87490357D01*
X167568571Y-87490357D01*
X167473333Y-87442738D01*
X167425714Y-87347500D01*
X167425714Y-87204642D01*
X167473333Y-87109404D01*
X168092380Y-86490357D02*
X168044761Y-86585595D01*
X167997142Y-86633214D01*
X167901904Y-86680833D01*
X167616190Y-86680833D01*
X167520952Y-86633214D01*
X167473333Y-86585595D01*
X167425714Y-86490357D01*
X167425714Y-86347500D01*
X167473333Y-86252261D01*
X167520952Y-86204642D01*
X167616190Y-86157023D01*
X167901904Y-86157023D01*
X167997142Y-86204642D01*
X168044761Y-86252261D01*
X168092380Y-86347500D01*
X168092380Y-86490357D01*
X168092380Y-85728452D02*
X167425714Y-85728452D01*
X167616190Y-85728452D02*
X167520952Y-85680833D01*
X167473333Y-85633214D01*
X167425714Y-85537976D01*
X167425714Y-85442738D01*
%TO.C,S1*%
X165504761Y-92961904D02*
X165552380Y-92819047D01*
X165552380Y-92580952D01*
X165504761Y-92485714D01*
X165457142Y-92438095D01*
X165361904Y-92390476D01*
X165266666Y-92390476D01*
X165171428Y-92438095D01*
X165123809Y-92485714D01*
X165076190Y-92580952D01*
X165028571Y-92771428D01*
X164980952Y-92866666D01*
X164933333Y-92914285D01*
X164838095Y-92961904D01*
X164742857Y-92961904D01*
X164647619Y-92914285D01*
X164600000Y-92866666D01*
X164552380Y-92771428D01*
X164552380Y-92533333D01*
X164600000Y-92390476D01*
X165552380Y-91438095D02*
X165552380Y-92009523D01*
X165552380Y-91723809D02*
X164552380Y-91723809D01*
X164695238Y-91819047D01*
X164790476Y-91914285D01*
X164838095Y-92009523D01*
%TO.C,R2*%
X182713333Y-101397380D02*
X182380000Y-100921190D01*
X182141904Y-101397380D02*
X182141904Y-100397380D01*
X182522857Y-100397380D01*
X182618095Y-100445000D01*
X182665714Y-100492619D01*
X182713333Y-100587857D01*
X182713333Y-100730714D01*
X182665714Y-100825952D01*
X182618095Y-100873571D01*
X182522857Y-100921190D01*
X182141904Y-100921190D01*
X183094285Y-100492619D02*
X183141904Y-100445000D01*
X183237142Y-100397380D01*
X183475238Y-100397380D01*
X183570476Y-100445000D01*
X183618095Y-100492619D01*
X183665714Y-100587857D01*
X183665714Y-100683095D01*
X183618095Y-100825952D01*
X183046666Y-101397380D01*
X183665714Y-101397380D01*
%TO.C,S2*%
X165504761Y-101296904D02*
X165552380Y-101154047D01*
X165552380Y-100915952D01*
X165504761Y-100820714D01*
X165457142Y-100773095D01*
X165361904Y-100725476D01*
X165266666Y-100725476D01*
X165171428Y-100773095D01*
X165123809Y-100820714D01*
X165076190Y-100915952D01*
X165028571Y-101106428D01*
X164980952Y-101201666D01*
X164933333Y-101249285D01*
X164838095Y-101296904D01*
X164742857Y-101296904D01*
X164647619Y-101249285D01*
X164600000Y-101201666D01*
X164552380Y-101106428D01*
X164552380Y-100868333D01*
X164600000Y-100725476D01*
X164647619Y-100344523D02*
X164600000Y-100296904D01*
X164552380Y-100201666D01*
X164552380Y-99963571D01*
X164600000Y-99868333D01*
X164647619Y-99820714D01*
X164742857Y-99773095D01*
X164838095Y-99773095D01*
X164980952Y-99820714D01*
X165552380Y-100392142D01*
X165552380Y-99773095D01*
%TO.C,R1*%
X182713333Y-93062380D02*
X182380000Y-92586190D01*
X182141904Y-93062380D02*
X182141904Y-92062380D01*
X182522857Y-92062380D01*
X182618095Y-92110000D01*
X182665714Y-92157619D01*
X182713333Y-92252857D01*
X182713333Y-92395714D01*
X182665714Y-92490952D01*
X182618095Y-92538571D01*
X182522857Y-92586190D01*
X182141904Y-92586190D01*
X183665714Y-93062380D02*
X183094285Y-93062380D01*
X183380000Y-93062380D02*
X183380000Y-92062380D01*
X183284761Y-92205238D01*
X183189523Y-92300476D01*
X183094285Y-92348095D01*
D11*
%TO.C,D2*%
X174265000Y-101575000D02*
X171175000Y-101575000D01*
X172719538Y-107125000D02*
G75*
G03*
X174264830Y-101575000I462J2990000D01*
G01*
X171175170Y-101575000D02*
G75*
G03*
X172720462Y-107125000I1544830J-2560000D01*
G01*
X175220000Y-104135000D02*
G75*
G03*
X175220000Y-104135000I-2500000J0D01*
G01*
%TO.C,J4*%
X191830000Y-82555000D02*
X191830000Y-92775000D01*
X189170000Y-82555000D02*
X191830000Y-82555000D01*
X189170000Y-81285000D02*
X189170000Y-79955000D01*
X189170000Y-92775000D02*
X191830000Y-92775000D01*
X189170000Y-82555000D02*
X189170000Y-92775000D01*
X189170000Y-79955000D02*
X190500000Y-79955000D01*
%TO.C,D1*%
X174265000Y-93240000D02*
X171175000Y-93240000D01*
X172719538Y-98790000D02*
G75*
G03*
X174264830Y-93240000I462J2990000D01*
G01*
X171175170Y-93240000D02*
G75*
G03*
X172720462Y-98790000I1544830J-2560000D01*
G01*
X175220000Y-95800000D02*
G75*
G03*
X175220000Y-95800000I-2500000J0D01*
G01*
%TO.C,Sensor*%
X171510000Y-82550000D02*
X171510000Y-90230000D01*
X168850000Y-90230000D02*
X171510000Y-90230000D01*
X168850000Y-82550000D02*
X168850000Y-90230000D01*
X168850000Y-82550000D02*
X171510000Y-82550000D01*
X168850000Y-79950000D02*
X170180000Y-79950000D01*
X168850000Y-81280000D02*
X168850000Y-79950000D01*
%TO.C,S1*%
X163770000Y-95800000D02*
X163770000Y-98400000D01*
X166430000Y-95800000D02*
X166430000Y-98400000D01*
X163770000Y-98400000D02*
X166430000Y-98400000D01*
X163770000Y-95800000D02*
X166430000Y-95800000D01*
X163770000Y-93200000D02*
X165100000Y-93200000D01*
X163770000Y-94530000D02*
X163770000Y-93200000D01*
%TO.C,R2*%
X184800000Y-103785000D02*
X184800000Y-101945000D01*
X180960000Y-101945000D02*
X180960000Y-103785000D01*
X184800000Y-101945000D02*
X180960000Y-101945000D01*
X180010000Y-102865000D02*
X180960000Y-102865000D01*
X185750000Y-102865000D02*
X184800000Y-102865000D01*
X180960000Y-103785000D02*
X184800000Y-103785000D01*
%TO.C,S2*%
X166430000Y-104135000D02*
X166430000Y-106735000D01*
X163770000Y-102865000D02*
X163770000Y-101535000D01*
X163770000Y-101535000D02*
X165100000Y-101535000D01*
X163770000Y-106735000D02*
X166430000Y-106735000D01*
X163770000Y-104135000D02*
X166430000Y-104135000D01*
X163770000Y-104135000D02*
X163770000Y-106735000D01*
%TO.C,R1*%
X180960000Y-93610000D02*
X180960000Y-95450000D01*
X185750000Y-94530000D02*
X184800000Y-94530000D01*
X184800000Y-93610000D02*
X180960000Y-93610000D01*
X184800000Y-95450000D02*
X184800000Y-93610000D01*
X180960000Y-95450000D02*
X184800000Y-95450000D01*
X180010000Y-94530000D02*
X180960000Y-94530000D01*
%TD*%
M02*
